<svg width="49" height="48" viewBox="0 0 49 48" fill="none" xmlns="http://www.w3.org/2000/svg">
<path d="M37.125 31.5C37.5625 31.5 38 31.9375 38 32.375V34.125C38 34.6172 37.5625 35 37.125 35H11.75C10.7656 35 10 34.2344 10 33.25V14.875C10 14.4375 10.3828 14 10.875 14H12.625C13.0625 14 13.5 14.4375 13.5 14.875V31.5H37.125ZM35.375 15.75C35.8125 15.75 36.25 16.1875 36.1953 16.625V23.1328C36.1953 24.2812 34.8281 24.8828 34.0078 24.0625L32.2031 22.2578L26.9531 27.5078C26.2969 28.2188 25.1484 28.2188 24.4922 27.5078L20.5 23.5156L17.9297 26.0312C17.6016 26.3594 17.0547 26.3594 16.7266 26.0312L15.4688 24.7734C15.1406 24.4453 15.1406 23.8984 15.4688 23.5703L19.2422 19.7969C19.8984 19.0859 21.0469 19.0859 21.7031 19.7969L25.75 23.7891L29.7422 19.7969L27.9375 17.9922C27.1172 17.1719 27.7188 15.75 28.8672 15.75H35.375Z" fill="#8001FF"/>
</svg>
