<svg width="20" height="29" viewBox="0 0 20 29" fill="none" xmlns="http://www.w3.org/2000/svg">
<path d="M5.625 25.3828V23.25H14.3203V25.3828C14.3203 25.7109 14.2109 26.0391 14.0469 26.3672L13.1172 27.7344C12.7891 28.2266 12.2422 28.5547 11.6406 28.5547H8.30469C7.70312 28.5547 7.15625 28.2266 6.82812 27.7344L5.89844 26.3672C5.67969 26.0391 5.625 25.7109 5.625 25.3828ZM0.375 10.125C0.375 5.03906 4.36719 0.554688 9.94531 0.5C15.25 0.5 19.625 4.82031 19.625 10.125C19.625 12.5859 18.6953 14.7734 17.2188 16.4688C16.2891 17.5078 14.9219 19.6953 14.375 21.5C14.375 21.5 14.375 21.5 14.375 21.5547H5.57031C5.57031 21.5 5.57031 21.5 5.57031 21.5C5.02344 19.6953 3.65625 17.5078 2.72656 16.4688C1.25 14.7734 0.375 12.5859 0.375 10.125ZM10 5.75C10.4375 5.75 10.875 5.36719 10.875 4.875C10.875 4.4375 10.4375 4 10 4C6.60938 4 3.875 6.78906 3.875 10.125C3.875 10.6172 4.25781 11 4.75 11C5.1875 11 5.625 10.6172 5.625 10.125C5.625 7.71875 7.53906 5.75 10 5.75Z" fill="#8001FF"/>
</svg>
