<svg width="151" height="27" viewBox="0 0 151 27" fill="none" xmlns="http://www.w3.org/2000/svg">
<path d="M91.9663 3.00903H94.1483V26.5644H91.9663V3.00903Z" fill="white"/>
<path d="M115.575 9.56955V26.5644H113.425V23.6432C112.51 24.7577 111.484 25.5962 110.347 26.1578C109.209 26.7202 107.965 27.0015 106.614 27.0015C104.214 27.0015 102.165 26.129 100.467 24.3851C98.769 22.6411 97.9194 20.5192 97.9194 18.0195C97.9194 15.5729 98.7768 13.4789 100.491 11.7402C102.204 10.0014 104.267 9.13159 106.677 9.13159C108.069 9.13159 109.329 9.42849 110.456 10.0223C111.583 10.6161 112.572 11.5059 113.425 12.6935V9.56955H115.575ZM106.857 11.2413C105.642 11.2413 104.522 11.5408 103.494 12.1381C102.467 12.7362 101.649 13.5764 101.043 14.6578C100.436 15.7392 100.133 16.8833 100.133 18.09C100.133 19.2863 100.438 20.4304 101.051 21.5223C101.663 22.6141 102.486 23.4647 103.518 24.0734C104.551 24.682 105.658 24.9858 106.841 24.9858C108.035 24.9858 109.166 24.6837 110.234 24.0812C111.303 23.4778 112.125 22.6611 112.701 21.632C113.277 20.6019 113.565 19.4422 113.565 18.1527C113.565 16.1867 112.919 14.5437 111.627 13.2221C110.335 11.9012 108.745 11.2413 106.857 11.2413Z" fill="white"/>
<path d="M120.624 26.5644V3.00903H122.806V12.4908C123.719 11.3658 124.742 10.5256 125.873 9.96839C127.004 9.41115 128.245 9.13253 129.594 9.13253C131.991 9.13253 134.039 10.005 135.735 11.7489C137.432 13.4929 138.28 15.6095 138.28 18.0988C138.28 20.5567 137.424 22.6551 135.712 24.3938C134 26.1335 131.939 27.0024 129.531 27.0024C128.151 27.0024 126.9 26.7055 125.78 26.1117C124.658 25.5179 123.668 24.628 122.806 23.4404V26.5644H120.624ZM129.351 24.8927C130.563 24.8927 131.683 24.5932 132.709 23.9942C133.735 23.3952 134.551 22.555 135.157 21.4718C135.764 20.3887 136.067 19.2438 136.067 18.0353C136.067 16.8276 135.761 15.6766 135.15 14.583C134.538 13.4894 133.716 12.6379 132.685 12.0293C131.654 11.4198 130.553 11.1159 129.382 11.1159C128.19 11.1159 127.057 11.4207 125.985 12.0293C124.912 12.6388 124.088 13.459 123.512 14.4898C122.937 15.5207 122.65 16.6822 122.65 17.9734C122.65 19.9412 123.295 21.5868 124.585 22.9093C125.876 24.2319 127.464 24.8927 129.351 24.8927Z" fill="white"/>
<path d="M150.778 11.4286L149.375 12.8809C148.209 11.7455 147.068 11.1787 145.954 11.1787C145.245 11.1787 144.639 11.4129 144.133 11.8813C143.628 12.3498 143.376 12.8966 143.376 13.5217C143.376 14.0737 143.584 14.5996 144 15.0994C144.416 15.6096 145.291 16.2086 146.624 16.8956C148.248 17.7393 149.351 18.5516 149.934 19.3326C150.506 20.1241 150.793 21.0148 150.793 22.0039C150.793 23.3996 150.304 24.5811 149.326 25.5493C148.348 26.5175 147.126 27.0016 145.658 27.0016C144.68 27.0016 143.747 26.7883 142.857 26.3608C141.968 25.9341 141.231 25.3456 140.648 24.5959L142.02 23.0339C143.134 24.2938 144.316 24.9242 145.566 24.9242C146.44 24.9242 147.185 24.6429 147.799 24.0805C148.413 23.518 148.72 22.8572 148.72 22.0962C148.72 21.471 148.517 20.9147 148.112 20.4245C147.705 19.9456 146.789 19.3413 145.363 18.6126C143.833 17.8211 142.791 17.0401 142.24 16.2696C141.688 15.499 141.412 14.6196 141.412 13.6297C141.412 12.3384 141.851 11.2658 142.73 10.4116C143.609 9.55749 144.72 9.13086 146.063 9.13086C147.625 9.1326 149.196 9.89793 150.778 11.4286Z" fill="white"/>
<path d="M0 9.34851H4.38922L8.72718 19.5041L13.0556 9.34851H17.4231L10.1161 26.5584H7.3226L0 9.34851Z" fill="white"/>
<path d="M23.4502 8.90533C25.0702 8.90533 26.5929 9.31107 28.0192 10.1234C29.4447 10.9358 30.5574 12.0372 31.3565 13.4294C32.1557 14.8216 32.5561 16.3244 32.5561 17.9378C32.5561 19.5616 32.154 21.0801 31.3487 22.4932C30.5444 23.9063 29.4473 25.0112 28.0583 25.807C26.6694 26.6028 25.1389 27.0016 23.4659 27.0016C21.0041 27.0016 18.902 26.1239 17.1613 24.3678C15.4197 22.6116 14.5493 20.4793 14.5493 17.9691C14.5493 15.2805 15.5326 13.0393 17.5001 11.2466C19.2261 9.68633 21.2091 8.90533 23.4502 8.90533ZM23.5215 12.9705C22.1829 12.9705 21.0684 13.4372 20.1781 14.3706C19.2877 15.304 18.8421 16.4985 18.8421 17.9534C18.8421 19.451 19.2816 20.6639 20.1624 21.592C21.0424 22.5202 22.1568 22.9842 23.5058 22.9842C24.8548 22.9842 25.9771 22.5149 26.8726 21.5764C27.7682 20.6378 28.2164 19.4301 28.2164 17.9543C28.2164 16.4776 27.776 15.2787 26.8961 14.3558C26.0162 13.432 24.8913 12.9705 23.5215 12.9705ZM24.2546 0H29.3517L23.5762 6.20099H20.483L24.2546 0Z" fill="white"/>
<path d="M32.5549 9.34857H36.2475V11.5157C36.6471 10.6616 37.1787 10.0129 37.8414 9.56973C38.5042 9.12655 39.2304 8.9054 40.0191 8.9054C40.5768 8.9054 41.1605 9.05341 41.7712 9.34857L40.43 13.0655C39.9253 12.8121 39.5092 12.6859 39.1835 12.6859C38.5207 12.6859 37.9604 13.0969 37.5027 13.9196C37.0449 14.7424 36.8165 16.3558 36.8165 18.7598L36.8321 19.5982V26.5585H32.5558V9.34857H32.5549Z" fill="white"/>
<path d="M44.4536 3.00549H48.762V9.34841H51.3184V13.0653H48.762V26.5583H44.4536V13.0653H42.2446V9.34841H44.4536V3.00549Z" fill="white"/>
<path d="M53.4488 2.26221C54.2036 2.26221 54.8516 2.53647 55.3919 3.085C55.9322 3.63353 56.2023 4.29786 56.2023 5.07799C56.2023 5.84767 55.9348 6.50417 55.3997 7.04747C54.8646 7.59078 54.2245 7.86243 53.48 7.86243C52.7139 7.86243 52.0607 7.58555 51.5204 7.0318C50.9801 6.47805 50.71 5.80588 50.71 5.0153C50.71 4.25607 50.9775 3.60741 51.5126 3.06933C52.0485 2.53125 52.6931 2.26221 53.4488 2.26221ZM51.2946 9.34868H55.603V26.5586H51.2946V9.34868Z" fill="white"/>
<path d="M73.2458 12.8285L69.6592 14.8059C68.9851 14.0997 68.3189 13.6095 67.6604 13.3344C67.002 13.0601 66.2307 12.9235 65.3455 12.9235C63.7342 12.9235 62.4304 13.4049 61.4349 14.3688C60.4395 15.3326 59.9418 16.5664 59.9418 18.0727C59.9418 19.5363 60.4212 20.7317 61.3793 21.6581C62.3375 22.5845 63.597 23.0477 65.1553 23.0477C67.0828 23.0477 68.5838 22.3886 69.6583 21.0704L73.0555 23.4021C71.214 25.8026 68.6159 27.0024 65.2595 27.0024C62.2402 27.0024 59.8757 26.1064 58.1663 24.3137C56.4568 22.521 55.6021 20.4226 55.6021 18.0178C55.6021 16.3513 56.0173 14.8172 56.8485 13.4145C57.6798 12.0118 58.8395 10.9104 60.3283 10.1085C61.8171 9.30751 63.4814 8.90613 65.323 8.90613C67.0272 8.90613 68.5578 9.24656 69.9154 9.92657C71.2731 10.6066 72.3832 11.5739 73.2458 12.8285Z" fill="white"/>
<path d="M88.7883 19.2029H74.9483C75.1481 20.4263 75.6823 21.3988 76.5501 22.1215C77.4179 22.8441 78.5254 23.2055 79.8718 23.2055C81.4813 23.2055 82.8651 22.6413 84.0221 21.5129L87.6521 23.2211C86.747 24.508 85.6638 25.4597 84.4008 26.0761C83.1378 26.6925 81.6394 27.0016 79.903 27.0016C77.2094 27.0016 75.0161 26.1501 73.3223 24.4471C71.6284 22.744 70.7815 20.6108 70.7815 18.0484C70.7815 15.4224 71.6258 13.2423 73.3144 11.5079C75.0031 9.77346 77.1199 8.9054 79.6659 8.9054C82.37 8.9054 84.5685 9.77259 86.2623 11.5079C87.9562 13.2423 88.8031 15.5339 88.8031 18.381L88.7883 19.2029ZM84.4799 15.8021C84.195 14.8426 83.6338 14.0624 82.7965 13.4608C81.9582 12.86 80.9862 12.5588 79.8796 12.5588C78.6783 12.5588 77.6246 12.8966 76.7186 13.5714C76.1497 13.9937 75.6224 14.7363 75.1377 15.8021H84.4799Z" fill="white"/>
</svg>
