<svg width="30" height="31" viewBox="0 0 30 31" fill="none" xmlns="http://www.w3.org/2000/svg">
<path d="M13.1562 1.77344C22.125 0.078125 29.9453 6.85938 30 15.4453C29.9453 17.4141 28.3594 19 26.4453 19H22.0703C19.2812 19 17.4766 21.8984 18.7344 24.4141C19.7734 26.4375 18.6797 29.0625 16.4375 29.4453C9.4375 30.4844 0.25 22.8828 2.27344 12.6562C3.3125 7.24219 7.6875 2.86719 13.1562 1.77344ZM7.25 19C8.17969 19 9 18.2344 9 17.25C9 16.3203 8.17969 15.5 7.25 15.5C6.26562 15.5 5.5 16.3203 5.5 17.25C5.5 18.2344 6.26562 19 7.25 19ZM9 12C9.92969 12 10.75 11.2344 10.75 10.25C10.75 9.32031 9.92969 8.5 9 8.5C8.01562 8.5 7.25 9.32031 7.25 10.25C7.25 11.2344 8.01562 12 9 12ZM16 8.5C16.9297 8.5 17.75 7.73438 17.75 6.75C17.75 5.82031 16.9297 5 16 5C15.0156 5 14.25 5.82031 14.25 6.75C14.25 7.73438 15.0156 8.5 16 8.5ZM23 12C23.9297 12 24.75 11.2344 24.75 10.25C24.75 9.32031 23.9297 8.5 23 8.5C22.0156 8.5 21.25 9.32031 21.25 10.25C21.25 11.2344 22.0156 12 23 12Z" fill="#8001FF"/>
</svg>
