<svg width="49" height="48" viewBox="0 0 49 48" fill="none" xmlns="http://www.w3.org/2000/svg">
<path d="M24 10.9375C31.4922 10.9375 37.5625 17.0078 37.5625 24.5C37.5625 31.9922 31.4922 38.0625 24 38.0625C16.5078 38.0625 10.4375 31.9922 10.4375 24.5C10.4375 17.0078 16.5078 10.9375 24 10.9375ZM28.375 20.125C27.3906 20.125 26.625 20.9453 26.625 21.875C26.625 22.8594 27.3906 23.625 28.375 23.625C29.3047 23.625 30.125 22.8594 30.125 21.875C30.125 20.9453 29.3047 20.125 28.375 20.125ZM19.625 20.125C18.6406 20.125 17.875 20.9453 17.875 21.875C17.875 22.8594 18.6406 23.625 19.625 23.625C20.5547 23.625 21.375 22.8594 21.375 21.875C21.375 20.9453 20.5547 20.125 19.625 20.125ZM30.2344 29.4766C31 28.5469 29.6328 27.4531 28.9219 28.3281C27.6641 29.8047 25.9141 30.625 24 30.625C22.0859 30.625 20.2812 29.8047 19.0234 28.3281C18.3125 27.4531 16.9453 28.5469 17.7109 29.4766C19.2422 31.3359 21.5391 32.375 24 32.375C26.4062 32.375 28.7031 31.3359 30.2344 29.4766Z" fill="#8001FF"/>
</svg>
