<svg width="49" height="48" viewBox="0 0 49 48" fill="none" xmlns="http://www.w3.org/2000/svg">
<path d="M24 10.9375C31.4375 10.9375 37.5625 17.0625 37.5625 24.5C37.5625 31.9922 31.4375 38.0625 24 38.0625C16.5078 38.0625 10.4375 31.9922 10.4375 24.5C10.4375 17.0625 16.5078 10.9375 24 10.9375ZM24 34.5625C29.5234 34.5625 34.0625 30.0781 34.0625 24.5C34.0625 18.9766 29.5234 14.4375 24 14.4375C18.4219 14.4375 13.9375 18.9766 13.9375 24.5C13.9375 30.0781 18.4219 34.5625 24 34.5625ZM24 17.5C27.8281 17.5 31 20.6719 31 24.5C31 28.3828 27.8281 31.5 24 31.5C20.1172 31.5 17 28.3828 17 24.5C17 20.6719 20.1172 17.5 24 17.5ZM24 28C25.9141 28 27.5 26.4688 27.5 24.5C27.5 22.5859 25.9141 21 24 21C22.0312 21 20.5 22.5859 20.5 24.5C20.5 26.4688 22.0312 28 24 28Z" fill="#8001FF"/>
</svg>
